<?xml version="1.0" encoding="UTF-8" standalone="no"?>
<!-- This is a Stata 18.0 generated SVG file (http://www.stata.com) -->

<svg version="1.1" width="7.500in" height="4.500in" viewBox="0 0 5400 3240" xmlns="http://www.w3.org/2000/svg" xmlns:xlink="http://www.w3.org/1999/xlink">
	<desc>Stata Graph - Graph</desc>
	<rect x="0" y="0" width="5400" height="3240" style="fill:#FFFFFF;stroke:none"/>
	<rect x="0.00" y="0.00" width="5400.00" height="3240.00" style="fill:#FFFFFF"/>
	<rect x="3.24" y="3.24" width="5393.52" height="3233.52" style="fill:none;stroke:#FFFFFF;stroke-width:6.48"/>
	<rect x="557.72" y="113.40" width="2829.43" height="2653.26" style="fill:#FFFFFF"/>
	<rect x="560.96" y="116.64" width="2822.95" height="2646.78" style="fill:none;stroke:#FFFFFF;stroke-width:6.48"/>
	<line x1="557.72" y1="2766.66" x2="622.52" y2="2766.66" style="stroke:#F0F0F0;stroke-width:9.72"/>
	<line x1="654.92" y1="2766.66" x2="719.72" y2="2766.66" style="stroke:#F0F0F0;stroke-width:9.72"/>
	<line x1="752.12" y1="2766.66" x2="816.92" y2="2766.66" style="stroke:#F0F0F0;stroke-width:9.72"/>
	<line x1="849.32" y1="2766.66" x2="914.12" y2="2766.66" style="stroke:#F0F0F0;stroke-width:9.72"/>
	<line x1="946.52" y1="2766.66" x2="1011.32" y2="2766.66" style="stroke:#F0F0F0;stroke-width:9.72"/>
	<line x1="1043.72" y1="2766.66" x2="1108.52" y2="2766.66" style="stroke:#F0F0F0;stroke-width:9.72"/>
	<line x1="1140.92" y1="2766.66" x2="1205.72" y2="2766.66" style="stroke:#F0F0F0;stroke-width:9.72"/>
	<line x1="1238.12" y1="2766.66" x2="1302.92" y2="2766.66" style="stroke:#F0F0F0;stroke-width:9.72"/>
	<line x1="1335.32" y1="2766.66" x2="1400.12" y2="2766.66" style="stroke:#F0F0F0;stroke-width:9.72"/>
	<line x1="1432.52" y1="2766.66" x2="1497.32" y2="2766.66" style="stroke:#F0F0F0;stroke-width:9.72"/>
	<line x1="1529.72" y1="2766.66" x2="1594.52" y2="2766.66" style="stroke:#F0F0F0;stroke-width:9.72"/>
	<line x1="1626.92" y1="2766.66" x2="1691.72" y2="2766.66" style="stroke:#F0F0F0;stroke-width:9.72"/>
	<line x1="1724.12" y1="2766.66" x2="1788.92" y2="2766.66" style="stroke:#F0F0F0;stroke-width:9.72"/>
	<line x1="1821.32" y1="2766.66" x2="1886.12" y2="2766.66" style="stroke:#F0F0F0;stroke-width:9.72"/>
	<line x1="1918.52" y1="2766.66" x2="1983.32" y2="2766.66" style="stroke:#F0F0F0;stroke-width:9.72"/>
	<line x1="2015.72" y1="2766.66" x2="2080.52" y2="2766.66" style="stroke:#F0F0F0;stroke-width:9.72"/>
	<line x1="2112.92" y1="2766.66" x2="2177.72" y2="2766.66" style="stroke:#F0F0F0;stroke-width:9.72"/>
	<line x1="2210.12" y1="2766.66" x2="2274.92" y2="2766.66" style="stroke:#F0F0F0;stroke-width:9.72"/>
	<line x1="2307.32" y1="2766.66" x2="2372.12" y2="2766.66" style="stroke:#F0F0F0;stroke-width:9.72"/>
	<line x1="2404.52" y1="2766.66" x2="2469.32" y2="2766.66" style="stroke:#F0F0F0;stroke-width:9.72"/>
	<line x1="2501.72" y1="2766.66" x2="2566.52" y2="2766.66" style="stroke:#F0F0F0;stroke-width:9.72"/>
	<line x1="2598.92" y1="2766.66" x2="2663.72" y2="2766.66" style="stroke:#F0F0F0;stroke-width:9.72"/>
	<line x1="2696.12" y1="2766.66" x2="2760.92" y2="2766.66" style="stroke:#F0F0F0;stroke-width:9.72"/>
	<line x1="2793.32" y1="2766.66" x2="2858.12" y2="2766.66" style="stroke:#F0F0F0;stroke-width:9.72"/>
	<line x1="2890.52" y1="2766.66" x2="2955.32" y2="2766.66" style="stroke:#F0F0F0;stroke-width:9.72"/>
	<line x1="2987.72" y1="2766.66" x2="3052.52" y2="2766.66" style="stroke:#F0F0F0;stroke-width:9.72"/>
	<line x1="3084.92" y1="2766.66" x2="3149.72" y2="2766.66" style="stroke:#F0F0F0;stroke-width:9.72"/>
	<line x1="3182.12" y1="2766.66" x2="3246.92" y2="2766.66" style="stroke:#F0F0F0;stroke-width:9.72"/>
	<line x1="3279.32" y1="2766.66" x2="3344.12" y2="2766.66" style="stroke:#F0F0F0;stroke-width:9.72"/>
	<line x1="3376.52" y1="2766.66" x2="3387.15" y2="2766.66" style="stroke:#F0F0F0;stroke-width:9.72"/>
	<line x1="557.72" y1="1906.03" x2="622.52" y2="1906.03" style="stroke:#F0F0F0;stroke-width:9.72"/>
	<line x1="654.92" y1="1906.03" x2="719.72" y2="1906.03" style="stroke:#F0F0F0;stroke-width:9.72"/>
	<line x1="752.12" y1="1906.03" x2="816.92" y2="1906.03" style="stroke:#F0F0F0;stroke-width:9.72"/>
	<line x1="849.32" y1="1906.03" x2="914.12" y2="1906.03" style="stroke:#F0F0F0;stroke-width:9.72"/>
	<line x1="946.52" y1="1906.03" x2="1011.32" y2="1906.03" style="stroke:#F0F0F0;stroke-width:9.72"/>
	<line x1="1043.72" y1="1906.03" x2="1108.52" y2="1906.03" style="stroke:#F0F0F0;stroke-width:9.72"/>
	<line x1="1140.92" y1="1906.03" x2="1205.72" y2="1906.03" style="stroke:#F0F0F0;stroke-width:9.72"/>
	<line x1="1238.12" y1="1906.03" x2="1302.92" y2="1906.03" style="stroke:#F0F0F0;stroke-width:9.72"/>
	<line x1="1335.32" y1="1906.03" x2="1400.12" y2="1906.03" style="stroke:#F0F0F0;stroke-width:9.72"/>
	<line x1="1432.52" y1="1906.03" x2="1497.32" y2="1906.03" style="stroke:#F0F0F0;stroke-width:9.72"/>
	<line x1="1529.72" y1="1906.03" x2="1594.52" y2="1906.03" style="stroke:#F0F0F0;stroke-width:9.72"/>
	<line x1="1626.92" y1="1906.03" x2="1691.72" y2="1906.03" style="stroke:#F0F0F0;stroke-width:9.72"/>
	<line x1="1724.12" y1="1906.03" x2="1788.92" y2="1906.03" style="stroke:#F0F0F0;stroke-width:9.72"/>
	<line x1="1821.32" y1="1906.03" x2="1886.12" y2="1906.03" style="stroke:#F0F0F0;stroke-width:9.72"/>
	<line x1="1918.52" y1="1906.03" x2="1983.32" y2="1906.03" style="stroke:#F0F0F0;stroke-width:9.72"/>
	<line x1="2015.72" y1="1906.03" x2="2080.52" y2="1906.03" style="stroke:#F0F0F0;stroke-width:9.72"/>
	<line x1="2112.92" y1="1906.03" x2="2177.72" y2="1906.03" style="stroke:#F0F0F0;stroke-width:9.72"/>
	<line x1="2210.12" y1="1906.03" x2="2274.92" y2="1906.03" style="stroke:#F0F0F0;stroke-width:9.72"/>
	<line x1="2307.32" y1="1906.03" x2="2372.12" y2="1906.03" style="stroke:#F0F0F0;stroke-width:9.72"/>
	<line x1="2404.52" y1="1906.03" x2="2469.32" y2="1906.03" style="stroke:#F0F0F0;stroke-width:9.72"/>
	<line x1="2501.72" y1="1906.03" x2="2566.52" y2="1906.03" style="stroke:#F0F0F0;stroke-width:9.72"/>
	<line x1="2598.92" y1="1906.03" x2="2663.72" y2="1906.03" style="stroke:#F0F0F0;stroke-width:9.72"/>
	<line x1="2696.12" y1="1906.03" x2="2760.92" y2="1906.03" style="stroke:#F0F0F0;stroke-width:9.72"/>
	<line x1="2793.32" y1="1906.03" x2="2858.12" y2="1906.03" style="stroke:#F0F0F0;stroke-width:9.72"/>
	<line x1="2890.52" y1="1906.03" x2="2955.32" y2="1906.03" style="stroke:#F0F0F0;stroke-width:9.72"/>
	<line x1="2987.72" y1="1906.03" x2="3052.52" y2="1906.03" style="stroke:#F0F0F0;stroke-width:9.72"/>
	<line x1="3084.92" y1="1906.03" x2="3149.72" y2="1906.03" style="stroke:#F0F0F0;stroke-width:9.72"/>
	<line x1="3182.12" y1="1906.03" x2="3246.92" y2="1906.03" style="stroke:#F0F0F0;stroke-width:9.72"/>
	<line x1="3279.32" y1="1906.03" x2="3344.12" y2="1906.03" style="stroke:#F0F0F0;stroke-width:9.72"/>
	<line x1="3376.52" y1="1906.03" x2="3387.15" y2="1906.03" style="stroke:#F0F0F0;stroke-width:9.72"/>
	<line x1="557.72" y1="1045.41" x2="622.52" y2="1045.41" style="stroke:#F0F0F0;stroke-width:9.72"/>
	<line x1="654.92" y1="1045.41" x2="719.72" y2="1045.41" style="stroke:#F0F0F0;stroke-width:9.72"/>
	<line x1="752.12" y1="1045.41" x2="816.92" y2="1045.41" style="stroke:#F0F0F0;stroke-width:9.72"/>
	<line x1="849.32" y1="1045.41" x2="914.12" y2="1045.41" style="stroke:#F0F0F0;stroke-width:9.72"/>
	<line x1="946.52" y1="1045.41" x2="1011.32" y2="1045.41" style="stroke:#F0F0F0;stroke-width:9.72"/>
	<line x1="1043.72" y1="1045.41" x2="1108.52" y2="1045.41" style="stroke:#F0F0F0;stroke-width:9.72"/>
	<line x1="1140.92" y1="1045.41" x2="1205.72" y2="1045.41" style="stroke:#F0F0F0;stroke-width:9.72"/>
	<line x1="1238.12" y1="1045.41" x2="1302.92" y2="1045.41" style="stroke:#F0F0F0;stroke-width:9.72"/>
	<line x1="1335.32" y1="1045.41" x2="1400.12" y2="1045.41" style="stroke:#F0F0F0;stroke-width:9.72"/>
	<line x1="1432.52" y1="1045.41" x2="1497.32" y2="1045.41" style="stroke:#F0F0F0;stroke-width:9.72"/>
	<line x1="1529.72" y1="1045.41" x2="1594.52" y2="1045.41" style="stroke:#F0F0F0;stroke-width:9.72"/>
	<line x1="1626.92" y1="1045.41" x2="1691.72" y2="1045.41" style="stroke:#F0F0F0;stroke-width:9.72"/>
	<line x1="1724.12" y1="1045.41" x2="1788.92" y2="1045.41" style="stroke:#F0F0F0;stroke-width:9.72"/>
	<line x1="1821.32" y1="1045.41" x2="1886.12" y2="1045.41" style="stroke:#F0F0F0;stroke-width:9.72"/>
	<line x1="1918.52" y1="1045.41" x2="1983.32" y2="1045.41" style="stroke:#F0F0F0;stroke-width:9.72"/>
	<line x1="2015.72" y1="1045.41" x2="2080.52" y2="1045.41" style="stroke:#F0F0F0;stroke-width:9.72"/>
	<line x1="2112.92" y1="1045.41" x2="2177.72" y2="1045.41" style="stroke:#F0F0F0;stroke-width:9.72"/>
	<line x1="2210.12" y1="1045.41" x2="2274.92" y2="1045.41" style="stroke:#F0F0F0;stroke-width:9.72"/>
	<line x1="2307.32" y1="1045.41" x2="2372.12" y2="1045.41" style="stroke:#F0F0F0;stroke-width:9.72"/>
	<line x1="2404.52" y1="1045.41" x2="2469.32" y2="1045.41" style="stroke:#F0F0F0;stroke-width:9.72"/>
	<line x1="2501.72" y1="1045.41" x2="2566.52" y2="1045.41" style="stroke:#F0F0F0;stroke-width:9.72"/>
	<line x1="2598.92" y1="1045.41" x2="2663.72" y2="1045.41" style="stroke:#F0F0F0;stroke-width:9.72"/>
	<line x1="2696.12" y1="1045.41" x2="2760.92" y2="1045.41" style="stroke:#F0F0F0;stroke-width:9.72"/>
	<line x1="2793.32" y1="1045.41" x2="2858.12" y2="1045.41" style="stroke:#F0F0F0;stroke-width:9.72"/>
	<line x1="2890.52" y1="1045.41" x2="2955.32" y2="1045.41" style="stroke:#F0F0F0;stroke-width:9.72"/>
	<line x1="2987.72" y1="1045.41" x2="3052.52" y2="1045.41" style="stroke:#F0F0F0;stroke-width:9.72"/>
	<line x1="3084.92" y1="1045.41" x2="3149.72" y2="1045.41" style="stroke:#F0F0F0;stroke-width:9.72"/>
	<line x1="3182.12" y1="1045.41" x2="3246.92" y2="1045.41" style="stroke:#F0F0F0;stroke-width:9.72"/>
	<line x1="3279.32" y1="1045.41" x2="3344.12" y2="1045.41" style="stroke:#F0F0F0;stroke-width:9.72"/>
	<line x1="3376.52" y1="1045.41" x2="3387.15" y2="1045.41" style="stroke:#F0F0F0;stroke-width:9.72"/>
	<line x1="557.72" y1="184.61" x2="622.52" y2="184.61" style="stroke:#F0F0F0;stroke-width:9.72"/>
	<line x1="654.92" y1="184.61" x2="719.72" y2="184.61" style="stroke:#F0F0F0;stroke-width:9.72"/>
	<line x1="752.12" y1="184.61" x2="816.92" y2="184.61" style="stroke:#F0F0F0;stroke-width:9.72"/>
	<line x1="849.32" y1="184.61" x2="914.12" y2="184.61" style="stroke:#F0F0F0;stroke-width:9.72"/>
	<line x1="946.52" y1="184.61" x2="1011.32" y2="184.61" style="stroke:#F0F0F0;stroke-width:9.72"/>
	<line x1="1043.72" y1="184.61" x2="1108.52" y2="184.61" style="stroke:#F0F0F0;stroke-width:9.72"/>
	<line x1="1140.92" y1="184.61" x2="1205.72" y2="184.61" style="stroke:#F0F0F0;stroke-width:9.72"/>
	<line x1="1238.12" y1="184.61" x2="1302.92" y2="184.61" style="stroke:#F0F0F0;stroke-width:9.72"/>
	<line x1="1335.32" y1="184.61" x2="1400.12" y2="184.61" style="stroke:#F0F0F0;stroke-width:9.72"/>
	<line x1="1432.52" y1="184.61" x2="1497.32" y2="184.61" style="stroke:#F0F0F0;stroke-width:9.72"/>
	<line x1="1529.72" y1="184.61" x2="1594.52" y2="184.61" style="stroke:#F0F0F0;stroke-width:9.72"/>
	<line x1="1626.92" y1="184.61" x2="1691.72" y2="184.61" style="stroke:#F0F0F0;stroke-width:9.72"/>
	<line x1="1724.12" y1="184.61" x2="1788.92" y2="184.61" style="stroke:#F0F0F0;stroke-width:9.72"/>
	<line x1="1821.32" y1="184.61" x2="1886.12" y2="184.61" style="stroke:#F0F0F0;stroke-width:9.72"/>
	<line x1="1918.52" y1="184.61" x2="1983.32" y2="184.61" style="stroke:#F0F0F0;stroke-width:9.72"/>
	<line x1="2015.72" y1="184.61" x2="2080.52" y2="184.61" style="stroke:#F0F0F0;stroke-width:9.72"/>
	<line x1="2112.92" y1="184.61" x2="2177.72" y2="184.61" style="stroke:#F0F0F0;stroke-width:9.72"/>
	<line x1="2210.12" y1="184.61" x2="2274.92" y2="184.61" style="stroke:#F0F0F0;stroke-width:9.72"/>
	<line x1="2307.32" y1="184.61" x2="2372.12" y2="184.61" style="stroke:#F0F0F0;stroke-width:9.72"/>
	<line x1="2404.52" y1="184.61" x2="2469.32" y2="184.61" style="stroke:#F0F0F0;stroke-width:9.72"/>
	<line x1="2501.72" y1="184.61" x2="2566.52" y2="184.61" style="stroke:#F0F0F0;stroke-width:9.72"/>
	<line x1="2598.92" y1="184.61" x2="2663.72" y2="184.61" style="stroke:#F0F0F0;stroke-width:9.72"/>
	<line x1="2696.12" y1="184.61" x2="2760.92" y2="184.61" style="stroke:#F0F0F0;stroke-width:9.72"/>
	<line x1="2793.32" y1="184.61" x2="2858.12" y2="184.61" style="stroke:#F0F0F0;stroke-width:9.72"/>
	<line x1="2890.52" y1="184.61" x2="2955.32" y2="184.61" style="stroke:#F0F0F0;stroke-width:9.72"/>
	<line x1="2987.72" y1="184.61" x2="3052.52" y2="184.61" style="stroke:#F0F0F0;stroke-width:9.72"/>
	<line x1="3084.92" y1="184.61" x2="3149.72" y2="184.61" style="stroke:#F0F0F0;stroke-width:9.72"/>
	<line x1="3182.12" y1="184.61" x2="3246.92" y2="184.61" style="stroke:#F0F0F0;stroke-width:9.72"/>
	<line x1="3279.32" y1="184.61" x2="3344.12" y2="184.61" style="stroke:#F0F0F0;stroke-width:9.72"/>
	<line x1="3376.52" y1="184.61" x2="3387.15" y2="184.61" style="stroke:#F0F0F0;stroke-width:9.72"/>
	<line x1="706.39" y1="2766.66" x2="706.39" y2="2701.86" style="stroke:#F0F0F0;stroke-width:9.72"/>
	<line x1="706.39" y1="2669.46" x2="706.39" y2="2604.66" style="stroke:#F0F0F0;stroke-width:9.72"/>
	<line x1="706.39" y1="2572.26" x2="706.39" y2="2507.46" style="stroke:#F0F0F0;stroke-width:9.72"/>
	<line x1="706.39" y1="2475.06" x2="706.39" y2="2410.26" style="stroke:#F0F0F0;stroke-width:9.72"/>
	<line x1="706.39" y1="2377.86" x2="706.39" y2="2313.06" style="stroke:#F0F0F0;stroke-width:9.72"/>
	<line x1="706.39" y1="2280.66" x2="706.39" y2="2215.86" style="stroke:#F0F0F0;stroke-width:9.72"/>
	<line x1="706.39" y1="2183.46" x2="706.39" y2="2118.66" style="stroke:#F0F0F0;stroke-width:9.72"/>
	<line x1="706.39" y1="2086.26" x2="706.39" y2="2021.46" style="stroke:#F0F0F0;stroke-width:9.72"/>
	<line x1="706.39" y1="1989.06" x2="706.39" y2="1924.26" style="stroke:#F0F0F0;stroke-width:9.72"/>
	<line x1="706.39" y1="1891.86" x2="706.39" y2="1827.06" style="stroke:#F0F0F0;stroke-width:9.72"/>
	<line x1="706.39" y1="1794.66" x2="706.39" y2="1729.86" style="stroke:#F0F0F0;stroke-width:9.72"/>
	<line x1="706.39" y1="1697.46" x2="706.39" y2="1632.66" style="stroke:#F0F0F0;stroke-width:9.72"/>
	<line x1="706.39" y1="1600.26" x2="706.39" y2="1535.46" style="stroke:#F0F0F0;stroke-width:9.72"/>
	<line x1="706.39" y1="1503.06" x2="706.39" y2="1438.26" style="stroke:#F0F0F0;stroke-width:9.72"/>
	<line x1="706.39" y1="1405.86" x2="706.39" y2="1341.06" style="stroke:#F0F0F0;stroke-width:9.72"/>
	<line x1="706.39" y1="1308.66" x2="706.39" y2="1243.86" style="stroke:#F0F0F0;stroke-width:9.72"/>
	<line x1="706.39" y1="1211.46" x2="706.39" y2="1146.66" style="stroke:#F0F0F0;stroke-width:9.72"/>
	<line x1="706.39" y1="1114.26" x2="706.39" y2="1049.46" style="stroke:#F0F0F0;stroke-width:9.72"/>
	<line x1="706.39" y1="1017.06" x2="706.39" y2="952.26" style="stroke:#F0F0F0;stroke-width:9.72"/>
	<line x1="706.39" y1="919.86" x2="706.39" y2="855.06" style="stroke:#F0F0F0;stroke-width:9.72"/>
	<line x1="706.39" y1="822.66" x2="706.39" y2="757.86" style="stroke:#F0F0F0;stroke-width:9.72"/>
	<line x1="706.39" y1="725.46" x2="706.39" y2="660.66" style="stroke:#F0F0F0;stroke-width:9.72"/>
	<line x1="706.39" y1="628.26" x2="706.39" y2="563.46" style="stroke:#F0F0F0;stroke-width:9.72"/>
	<line x1="706.39" y1="531.06" x2="706.39" y2="466.26" style="stroke:#F0F0F0;stroke-width:9.72"/>
	<line x1="706.39" y1="433.86" x2="706.39" y2="369.06" style="stroke:#F0F0F0;stroke-width:9.72"/>
	<line x1="706.39" y1="336.66" x2="706.39" y2="271.86" style="stroke:#F0F0F0;stroke-width:9.72"/>
	<line x1="706.39" y1="239.46" x2="706.39" y2="174.66" style="stroke:#F0F0F0;stroke-width:9.72"/>
	<line x1="706.39" y1="142.26" x2="706.39" y2="113.40" style="stroke:#F0F0F0;stroke-width:9.72"/>
	<line x1="1358.78" y1="2766.66" x2="1358.78" y2="2701.86" style="stroke:#F0F0F0;stroke-width:9.72"/>
	<line x1="1358.78" y1="2669.46" x2="1358.78" y2="2604.66" style="stroke:#F0F0F0;stroke-width:9.72"/>
	<line x1="1358.78" y1="2572.26" x2="1358.78" y2="2507.46" style="stroke:#F0F0F0;stroke-width:9.72"/>
	<line x1="1358.78" y1="2475.06" x2="1358.78" y2="2410.26" style="stroke:#F0F0F0;stroke-width:9.72"/>
	<line x1="1358.78" y1="2377.86" x2="1358.78" y2="2313.06" style="stroke:#F0F0F0;stroke-width:9.72"/>
	<line x1="1358.78" y1="2280.66" x2="1358.78" y2="2215.86" style="stroke:#F0F0F0;stroke-width:9.72"/>
	<line x1="1358.78" y1="2183.46" x2="1358.78" y2="2118.66" style="stroke:#F0F0F0;stroke-width:9.72"/>
	<line x1="1358.78" y1="2086.26" x2="1358.78" y2="2021.46" style="stroke:#F0F0F0;stroke-width:9.72"/>
	<line x1="1358.78" y1="1989.06" x2="1358.78" y2="1924.26" style="stroke:#F0F0F0;stroke-width:9.72"/>
	<line x1="1358.78" y1="1891.86" x2="1358.78" y2="1827.06" style="stroke:#F0F0F0;stroke-width:9.72"/>
	<line x1="1358.78" y1="1794.66" x2="1358.78" y2="1729.86" style="stroke:#F0F0F0;stroke-width:9.72"/>
	<line x1="1358.78" y1="1697.46" x2="1358.78" y2="1632.66" style="stroke:#F0F0F0;stroke-width:9.72"/>
	<line x1="1358.78" y1="1600.26" x2="1358.78" y2="1535.46" style="stroke:#F0F0F0;stroke-width:9.72"/>
	<line x1="1358.78" y1="1503.06" x2="1358.78" y2="1438.26" style="stroke:#F0F0F0;stroke-width:9.72"/>
	<line x1="1358.78" y1="1405.86" x2="1358.78" y2="1341.06" style="stroke:#F0F0F0;stroke-width:9.72"/>
	<line x1="1358.78" y1="1308.66" x2="1358.78" y2="1243.86" style="stroke:#F0F0F0;stroke-width:9.72"/>
	<line x1="1358.78" y1="1211.46" x2="1358.78" y2="1146.66" style="stroke:#F0F0F0;stroke-width:9.72"/>
	<line x1="1358.78" y1="1114.26" x2="1358.78" y2="1049.46" style="stroke:#F0F0F0;stroke-width:9.72"/>
	<line x1="1358.78" y1="1017.06" x2="1358.78" y2="952.26" style="stroke:#F0F0F0;stroke-width:9.72"/>
	<line x1="1358.78" y1="919.86" x2="1358.78" y2="855.06" style="stroke:#F0F0F0;stroke-width:9.72"/>
	<line x1="1358.78" y1="822.66" x2="1358.78" y2="757.86" style="stroke:#F0F0F0;stroke-width:9.72"/>
	<line x1="1358.78" y1="725.46" x2="1358.78" y2="660.66" style="stroke:#F0F0F0;stroke-width:9.72"/>
	<line x1="1358.78" y1="628.26" x2="1358.78" y2="563.46" style="stroke:#F0F0F0;stroke-width:9.72"/>
	<line x1="1358.78" y1="531.06" x2="1358.78" y2="466.26" style="stroke:#F0F0F0;stroke-width:9.72"/>
	<line x1="1358.78" y1="433.86" x2="1358.78" y2="369.06" style="stroke:#F0F0F0;stroke-width:9.72"/>
	<line x1="1358.78" y1="336.66" x2="1358.78" y2="271.86" style="stroke:#F0F0F0;stroke-width:9.72"/>
	<line x1="1358.78" y1="239.46" x2="1358.78" y2="174.66" style="stroke:#F0F0F0;stroke-width:9.72"/>
	<line x1="1358.78" y1="142.26" x2="1358.78" y2="113.40" style="stroke:#F0F0F0;stroke-width:9.72"/>
	<line x1="2011.16" y1="2766.66" x2="2011.16" y2="2701.86" style="stroke:#F0F0F0;stroke-width:9.72"/>
	<line x1="2011.16" y1="2669.46" x2="2011.16" y2="2604.66" style="stroke:#F0F0F0;stroke-width:9.72"/>
	<line x1="2011.16" y1="2572.26" x2="2011.16" y2="2507.46" style="stroke:#F0F0F0;stroke-width:9.72"/>
	<line x1="2011.16" y1="2475.06" x2="2011.16" y2="2410.26" style="stroke:#F0F0F0;stroke-width:9.72"/>
	<line x1="2011.16" y1="2377.86" x2="2011.16" y2="2313.06" style="stroke:#F0F0F0;stroke-width:9.72"/>
	<line x1="2011.16" y1="2280.66" x2="2011.16" y2="2215.86" style="stroke:#F0F0F0;stroke-width:9.72"/>
	<line x1="2011.16" y1="2183.46" x2="2011.16" y2="2118.66" style="stroke:#F0F0F0;stroke-width:9.72"/>
	<line x1="2011.16" y1="2086.26" x2="2011.16" y2="2021.46" style="stroke:#F0F0F0;stroke-width:9.72"/>
	<line x1="2011.16" y1="1989.06" x2="2011.16" y2="1924.26" style="stroke:#F0F0F0;stroke-width:9.72"/>
	<line x1="2011.16" y1="1891.86" x2="2011.16" y2="1827.06" style="stroke:#F0F0F0;stroke-width:9.72"/>
	<line x1="2011.16" y1="1794.66" x2="2011.16" y2="1729.86" style="stroke:#F0F0F0;stroke-width:9.72"/>
	<line x1="2011.16" y1="1697.46" x2="2011.16" y2="1632.66" style="stroke:#F0F0F0;stroke-width:9.72"/>
	<line x1="2011.16" y1="1600.26" x2="2011.16" y2="1535.46" style="stroke:#F0F0F0;stroke-width:9.72"/>
	<line x1="2011.16" y1="1503.06" x2="2011.16" y2="1438.26" style="stroke:#F0F0F0;stroke-width:9.72"/>
	<line x1="2011.16" y1="1405.86" x2="2011.16" y2="1341.06" style="stroke:#F0F0F0;stroke-width:9.72"/>
	<line x1="2011.16" y1="1308.66" x2="2011.16" y2="1243.86" style="stroke:#F0F0F0;stroke-width:9.72"/>
	<line x1="2011.16" y1="1211.46" x2="2011.16" y2="1146.66" style="stroke:#F0F0F0;stroke-width:9.72"/>
	<line x1="2011.16" y1="1114.26" x2="2011.16" y2="1049.46" style="stroke:#F0F0F0;stroke-width:9.72"/>
	<line x1="2011.16" y1="1017.06" x2="2011.16" y2="952.26" style="stroke:#F0F0F0;stroke-width:9.72"/>
	<line x1="2011.16" y1="919.86" x2="2011.16" y2="855.06" style="stroke:#F0F0F0;stroke-width:9.72"/>
	<line x1="2011.16" y1="822.66" x2="2011.16" y2="757.86" style="stroke:#F0F0F0;stroke-width:9.72"/>
	<line x1="2011.16" y1="725.46" x2="2011.16" y2="660.66" style="stroke:#F0F0F0;stroke-width:9.72"/>
	<line x1="2011.16" y1="628.26" x2="2011.16" y2="563.46" style="stroke:#F0F0F0;stroke-width:9.72"/>
	<line x1="2011.16" y1="531.06" x2="2011.16" y2="466.26" style="stroke:#F0F0F0;stroke-width:9.72"/>
	<line x1="2011.16" y1="433.86" x2="2011.16" y2="369.06" style="stroke:#F0F0F0;stroke-width:9.72"/>
	<line x1="2011.16" y1="336.66" x2="2011.16" y2="271.86" style="stroke:#F0F0F0;stroke-width:9.72"/>
	<line x1="2011.16" y1="239.46" x2="2011.16" y2="174.66" style="stroke:#F0F0F0;stroke-width:9.72"/>
	<line x1="2011.16" y1="142.26" x2="2011.16" y2="113.40" style="stroke:#F0F0F0;stroke-width:9.72"/>
	<line x1="2663.55" y1="2766.66" x2="2663.55" y2="2701.86" style="stroke:#F0F0F0;stroke-width:9.72"/>
	<line x1="2663.55" y1="2669.46" x2="2663.55" y2="2604.66" style="stroke:#F0F0F0;stroke-width:9.72"/>
	<line x1="2663.55" y1="2572.26" x2="2663.55" y2="2507.46" style="stroke:#F0F0F0;stroke-width:9.72"/>
	<line x1="2663.55" y1="2475.06" x2="2663.55" y2="2410.26" style="stroke:#F0F0F0;stroke-width:9.72"/>
	<line x1="2663.55" y1="2377.86" x2="2663.55" y2="2313.06" style="stroke:#F0F0F0;stroke-width:9.72"/>
	<line x1="2663.55" y1="2280.66" x2="2663.55" y2="2215.86" style="stroke:#F0F0F0;stroke-width:9.72"/>
	<line x1="2663.55" y1="2183.46" x2="2663.55" y2="2118.66" style="stroke:#F0F0F0;stroke-width:9.72"/>
	<line x1="2663.55" y1="2086.26" x2="2663.55" y2="2021.46" style="stroke:#F0F0F0;stroke-width:9.72"/>
	<line x1="2663.55" y1="1989.06" x2="2663.55" y2="1924.26" style="stroke:#F0F0F0;stroke-width:9.72"/>
	<line x1="2663.55" y1="1891.86" x2="2663.55" y2="1827.06" style="stroke:#F0F0F0;stroke-width:9.72"/>
	<line x1="2663.55" y1="1794.66" x2="2663.55" y2="1729.86" style="stroke:#F0F0F0;stroke-width:9.72"/>
	<line x1="2663.55" y1="1697.46" x2="2663.55" y2="1632.66" style="stroke:#F0F0F0;stroke-width:9.72"/>
	<line x1="2663.55" y1="1600.26" x2="2663.55" y2="1535.46" style="stroke:#F0F0F0;stroke-width:9.72"/>
	<line x1="2663.55" y1="1503.06" x2="2663.55" y2="1438.26" style="stroke:#F0F0F0;stroke-width:9.72"/>
	<line x1="2663.55" y1="1405.86" x2="2663.55" y2="1341.06" style="stroke:#F0F0F0;stroke-width:9.72"/>
	<line x1="2663.55" y1="1308.66" x2="2663.55" y2="1243.86" style="stroke:#F0F0F0;stroke-width:9.72"/>
	<line x1="2663.55" y1="1211.46" x2="2663.55" y2="1146.66" style="stroke:#F0F0F0;stroke-width:9.72"/>
	<line x1="2663.55" y1="1114.26" x2="2663.55" y2="1049.46" style="stroke:#F0F0F0;stroke-width:9.72"/>
	<line x1="2663.55" y1="1017.06" x2="2663.55" y2="952.26" style="stroke:#F0F0F0;stroke-width:9.72"/>
	<line x1="2663.55" y1="919.86" x2="2663.55" y2="855.06" style="stroke:#F0F0F0;stroke-width:9.72"/>
	<line x1="2663.55" y1="822.66" x2="2663.55" y2="757.86" style="stroke:#F0F0F0;stroke-width:9.72"/>
	<line x1="2663.55" y1="725.46" x2="2663.55" y2="660.66" style="stroke:#F0F0F0;stroke-width:9.72"/>
	<line x1="2663.55" y1="628.26" x2="2663.55" y2="563.46" style="stroke:#F0F0F0;stroke-width:9.72"/>
	<line x1="2663.55" y1="531.06" x2="2663.55" y2="466.26" style="stroke:#F0F0F0;stroke-width:9.72"/>
	<line x1="2663.55" y1="433.86" x2="2663.55" y2="369.06" style="stroke:#F0F0F0;stroke-width:9.72"/>
	<line x1="2663.55" y1="336.66" x2="2663.55" y2="271.86" style="stroke:#F0F0F0;stroke-width:9.72"/>
	<line x1="2663.55" y1="239.46" x2="2663.55" y2="174.66" style="stroke:#F0F0F0;stroke-width:9.72"/>
	<line x1="2663.55" y1="142.26" x2="2663.55" y2="113.40" style="stroke:#F0F0F0;stroke-width:9.72"/>
	<line x1="3315.94" y1="2766.66" x2="3315.94" y2="2701.86" style="stroke:#F0F0F0;stroke-width:9.72"/>
	<line x1="3315.94" y1="2669.46" x2="3315.94" y2="2604.66" style="stroke:#F0F0F0;stroke-width:9.72"/>
	<line x1="3315.94" y1="2572.26" x2="3315.94" y2="2507.46" style="stroke:#F0F0F0;stroke-width:9.72"/>
	<line x1="3315.94" y1="2475.06" x2="3315.94" y2="2410.26" style="stroke:#F0F0F0;stroke-width:9.72"/>
	<line x1="3315.94" y1="2377.86" x2="3315.94" y2="2313.06" style="stroke:#F0F0F0;stroke-width:9.72"/>
	<line x1="3315.94" y1="2280.66" x2="3315.94" y2="2215.86" style="stroke:#F0F0F0;stroke-width:9.72"/>
	<line x1="3315.94" y1="2183.46" x2="3315.94" y2="2118.66" style="stroke:#F0F0F0;stroke-width:9.72"/>
	<line x1="3315.94" y1="2086.26" x2="3315.94" y2="2021.46" style="stroke:#F0F0F0;stroke-width:9.72"/>
	<line x1="3315.94" y1="1989.06" x2="3315.94" y2="1924.26" style="stroke:#F0F0F0;stroke-width:9.72"/>
	<line x1="3315.94" y1="1891.86" x2="3315.94" y2="1827.06" style="stroke:#F0F0F0;stroke-width:9.72"/>
	<line x1="3315.94" y1="1794.66" x2="3315.94" y2="1729.86" style="stroke:#F0F0F0;stroke-width:9.72"/>
	<line x1="3315.94" y1="1697.46" x2="3315.94" y2="1632.66" style="stroke:#F0F0F0;stroke-width:9.72"/>
	<line x1="3315.94" y1="1600.26" x2="3315.94" y2="1535.46" style="stroke:#F0F0F0;stroke-width:9.72"/>
	<line x1="3315.94" y1="1503.06" x2="3315.94" y2="1438.26" style="stroke:#F0F0F0;stroke-width:9.72"/>
	<line x1="3315.94" y1="1405.86" x2="3315.94" y2="1341.06" style="stroke:#F0F0F0;stroke-width:9.72"/>
	<line x1="3315.94" y1="1308.66" x2="3315.94" y2="1243.86" style="stroke:#F0F0F0;stroke-width:9.72"/>
	<line x1="3315.94" y1="1211.46" x2="3315.94" y2="1146.66" style="stroke:#F0F0F0;stroke-width:9.72"/>
	<line x1="3315.94" y1="1114.26" x2="3315.94" y2="1049.46" style="stroke:#F0F0F0;stroke-width:9.72"/>
	<line x1="3315.94" y1="1017.06" x2="3315.94" y2="952.26" style="stroke:#F0F0F0;stroke-width:9.72"/>
	<line x1="3315.94" y1="919.86" x2="3315.94" y2="855.06" style="stroke:#F0F0F0;stroke-width:9.72"/>
	<line x1="3315.94" y1="822.66" x2="3315.94" y2="757.86" style="stroke:#F0F0F0;stroke-width:9.72"/>
	<line x1="3315.94" y1="725.46" x2="3315.94" y2="660.66" style="stroke:#F0F0F0;stroke-width:9.72"/>
	<line x1="3315.94" y1="628.26" x2="3315.94" y2="563.46" style="stroke:#F0F0F0;stroke-width:9.72"/>
	<line x1="3315.94" y1="531.06" x2="3315.94" y2="466.26" style="stroke:#F0F0F0;stroke-width:9.72"/>
	<line x1="3315.94" y1="433.86" x2="3315.94" y2="369.06" style="stroke:#F0F0F0;stroke-width:9.72"/>
	<line x1="3315.94" y1="336.66" x2="3315.94" y2="271.86" style="stroke:#F0F0F0;stroke-width:9.72"/>
	<line x1="3315.94" y1="239.46" x2="3315.94" y2="174.66" style="stroke:#F0F0F0;stroke-width:9.72"/>
	<line x1="3315.94" y1="142.26" x2="3315.94" y2="113.40" style="stroke:#F0F0F0;stroke-width:9.72"/>
	<rect x="838.69" y="1873.97" width="419.34" height="892.69" style="fill:#FF8C19;fill-opacity:0.40"/>
	<rect x="841.12" y="1876.40" width="414.48" height="887.83" style="fill:none;stroke:#5FAAFF;stroke-width:4.86"/>
	<rect x="1258.03" y="758.03" width="419.17" height="2008.63" style="fill:#FF8C19;fill-opacity:0.40"/>
	<rect x="1260.46" y="760.46" width="414.31" height="2003.77" style="fill:none;stroke:#5FAAFF;stroke-width:4.86"/>
	<rect x="1677.21" y="758.03" width="419.34" height="2008.63" style="fill:#FF8C19;fill-opacity:0.40"/>
	<rect x="1679.64" y="760.46" width="414.48" height="2003.77" style="fill:none;stroke:#5FAAFF;stroke-width:4.86"/>
	<rect x="2096.55" y="1650.71" width="419.34" height="1115.94" style="fill:#FF8C19;fill-opacity:0.40"/>
	<rect x="2098.98" y="1653.14" width="414.48" height="1111.08" style="fill:none;stroke:#5FAAFF;stroke-width:4.86"/>
	<rect x="2515.89" y="2097.06" width="419.34" height="669.60" style="fill:#FF8C19;fill-opacity:0.40"/>
	<rect x="2518.32" y="2099.49" width="414.48" height="664.74" style="fill:none;stroke:#5FAAFF;stroke-width:4.86"/>
	<path d=" M838.69 2406.71 L845.61 2396.76 L852.69 2386.63 L859.61 2376.34 L866.70 2365.71 L873.62 2355.07 L880.71 2344.11 L887.63 2332.97 L894.71 2321.49 L901.63 2310.02 L908.72 2298.21 L915.81 2286.23 L922.73 2274.07 L929.81 2261.76 L936.73 2249.10 L943.82 2236.44 L950.74 2223.45 L957.83 2210.12 L964.74 2196.79 L971.83 2183.12 L978.92 2169.28 L985.84 2155.28 L992.93 2141.10 L999.84 2126.76 L1006.93 2112.07 L1013.85 2097.23 L1020.94 2082.21 L1027.86 2067.02 L1034.94 2051.66 L1041.86 2036.14 L1048.95 2020.28 L1056.04 2004.41 L1062.96 1988.21 L1070.04 1971.84 L1076.96 1955.31 L1084.05 1938.77 L1090.97 1921.89 L1098.06 1904.85 L1104.97 1887.64 L1112.06 1870.26 L1119.15 1852.71 L1126.07 1835.16 L1133.16 1817.27 L1140.08 1799.38 L1147.16 1781.33 L1154.08 1763.10 L1161.17 1744.71 L1168.09 1726.31 L1175.18 1707.58 L1182.09 1689.02 L1189.18 1670.12 L1196.27 1651.22 L1203.19 1632.15 L1210.28 1613.08 L1217.19 1593.84 L1224.28 1574.61 L1231.20 1555.37 L1238.29 1535.96 L1245.21 1516.39 L1252.29 1496.98 L1259.38 1477.41 L1266.30 1457.83 L1273.39 1438.26 L1280.31 1418.51 L1287.39 1398.94 L1294.31 1379.19 L1301.40 1359.62 L1308.32 1340.04 L1315.41 1320.30 L1322.49 1300.72 L1329.41 1281.32 L1336.50 1261.74 L1343.42 1242.34 L1350.51 1222.93 L1357.43 1203.53 L1364.51 1184.29 L1371.43 1165.22 L1378.52 1146.15 L1385.44 1127.08 L1392.53 1108.35 L1399.61 1089.62 L1406.53 1071.06 L1413.62 1052.49 L1420.54 1034.27 L1427.63 1016.21 L1434.54 998.16 L1441.63 980.44 L1448.55 962.72 L1455.64 945.34 L1462.73 928.13 L1469.64 911.25 L1476.73 894.54 L1483.65 878.01 L1490.74 861.64 L1497.66 845.61 L1504.74 829.91 L1511.66 814.39 L1518.75 799.03 L1525.67 784.18 L1532.76 769.50 L1539.84 755.16 L1546.76 741.15 L1553.85 727.31 L1560.77 713.98 L1567.86 700.82 L1574.78 688.16 L1581.86 675.68 L1588.78 663.69 L1595.87 651.88 L1602.96 640.57 L1609.88 629.61 L1616.96 619.14 L1623.88 608.85 L1630.97 599.06 L1637.89 589.78 L1644.98 580.67 L1651.89 572.23 L1658.98 563.96 L1665.90 556.20 L1672.99 548.94 L1680.08 542.03 L1686.99 535.44 L1694.08 529.54 L1701.00 523.80 L1708.09 518.74 L1715.01 514.01 L1722.09 509.79 L1729.01 505.91 L1736.10 502.54 L1743.19 499.67 L1750.11 497.14 L1757.19 495.28 L1764.11 493.76 L1771.20 492.58 L1778.12 492.07 L1785.21 491.91 L1792.13 492.24 L1799.21 492.92 L1806.13 494.10 L1813.22 495.96 L1820.31 497.98 L1827.23 500.68 L1834.31 503.72 L1841.23 507.26 L1848.32 511.14 L1855.24 515.70 L1862.33 520.43 L1869.24 525.82 L1876.33 531.56 L1883.42 537.81 L1890.34 544.39 L1897.43 551.47 L1904.34 558.90 L1911.43 566.83 L1918.35 575.10 L1925.44 583.88 L1932.36 592.99 L1939.44 602.61 L1946.36 612.39 L1953.45 622.86 L1960.54 633.49 L1967.46 644.63 L1974.54 656.10 L1981.46 667.91 L1988.55 680.06 L1995.47 692.55 L2002.56 705.38 L2009.48 718.54 L2016.56 732.21 L2023.65 746.04 L2030.57 760.22 L2037.66 774.56 L2044.58 789.41 L2051.66 804.43 L2058.58 819.79 L2065.67 835.31 L2072.59 851.18 L2079.68 867.38 L2086.59 883.74 L2093.68 900.28 L2100.77 917.16 L2107.69 934.20 L2114.78 951.58 L2121.69 968.96 L2128.78 986.68 L2135.70 1004.57 L2142.79 1022.46 L2149.71 1040.68 L2156.79 1059.07 L2163.88 1077.47 L2170.80 1096.20 L2177.89 1114.93 L2184.81 1133.83 L2191.89 1152.73 L2198.81 1171.97 L2205.90 1191.04 L2212.82 1210.28 L2219.91 1229.68 L2226.99 1249.09 L2233.91 1268.66 L2241.00 1288.07 L2247.92 1307.64 L2255.01 1327.22 L2261.93 1346.96 L2269.01 1366.54 L2275.93 1386.28 L2283.02 1405.86 L2289.94 1425.43 L2297.03 1445.18 L2304.11 1464.75 L2311.03 1484.33 L2318.12 1503.90 L2325.04 1523.31 L2332.13 1542.71 L2339.04 1562.12 L2346.13 1581.53 L2353.05 1600.76 L2360.14 1619.83 L2367.23 1638.90 L2374.14 1657.97 L2381.23 1676.70 L2388.15 1695.60 L2395.24 1714.16 L2402.16 1732.73 L2409.24 1751.29 L2416.16 1769.51 L2423.25 1787.74 L2430.17 1805.79 L2437.26 1823.68 L2444.34 1841.40 L2451.26 1858.95 L2458.35 1876.50 L2465.27 1893.71 L2472.36 1910.76 L2479.28 1927.80 L2486.36 1944.51 L2493.28 1961.21 L2500.37 1977.58 L2507.46 1993.95 L2514.38 2009.98 L2521.46 2025.84 L2528.38 2041.54 L2535.47 2057.06 L2542.39 2072.42 L2549.48 2087.61 L2556.39 2102.46 L2563.48 2117.31 L2570.40 2131.82 L2577.49 2146.16 L2584.57 2160.34 L2591.49 2174.18 L2598.58 2188.01 L2605.50 2201.51 L2612.59 2214.84 L2619.51 2228.01 L2626.59 2240.83 L2633.51 2253.66 L2640.60 2266.14 L2647.69 2278.46 L2654.61 2290.44 L2661.69 2302.43 L2668.61 2314.07 L2675.70 2325.54 L2682.62 2336.85 L2689.71 2347.99 L2696.63 2358.79 L2703.71 2369.42 L2710.63 2379.88 L2717.72 2390.18 L2724.81 2400.30 L2731.73 2410.09 L2738.81 2419.88 L2745.73 2429.32 L2752.82 2438.61 L2759.74 2447.72 L2766.83 2456.66 L2773.74 2465.27 L2780.83 2473.88 L2787.92 2482.31 L2794.84 2490.41 L2801.93 2498.34 L2808.84 2506.28 L2815.93 2513.87 L2822.85 2521.29 L2829.94 2528.55 L2836.86 2535.64 L2843.94 2542.73 L2850.86 2549.48 L2857.95 2556.06 L2865.04 2562.47 L2871.96 2568.88 L2879.04 2574.96 L2885.96 2581.03 L2893.05 2586.77 L2899.97 2592.51 L2907.06 2598.07 L2913.98 2603.48 L2921.06 2608.71 L2928.15 2613.94 L2935.07 2618.83" stroke-linejoin="round" style="fill:none;stroke:#000000;stroke-width:9.72"/>
	<rect x="871.09" y="2546.27" width="424.74" height="220.39" style="fill:#198DFF;fill-opacity:0.50"/>
	<rect x="873.52" y="2548.70" width="419.88" height="215.53" style="fill:none;stroke:#5FAAFF;stroke-width:4.86"/>
	<rect x="1295.83" y="1445.01" width="424.74" height="1321.65" style="fill:#198DFF;fill-opacity:0.50"/>
	<rect x="1298.26" y="1447.44" width="419.88" height="1316.79" style="fill:none;stroke:#5FAAFF;stroke-width:4.86"/>
	<rect x="1720.58" y="343.57" width="424.91" height="2423.08" style="fill:#198DFF;fill-opacity:0.50"/>
	<rect x="1723.01" y="346.00" width="420.05" height="2418.22" style="fill:none;stroke:#5FAAFF;stroke-width:4.86"/>
	<rect x="2145.49" y="1224.62" width="424.74" height="1542.04" style="fill:#198DFF;fill-opacity:0.50"/>
	<rect x="2147.92" y="1227.05" width="419.88" height="1537.18" style="fill:none;stroke:#5FAAFF;stroke-width:4.86"/>
	<rect x="2570.23" y="1665.23" width="424.91" height="1101.43" style="fill:#198DFF;fill-opacity:0.50"/>
	<rect x="2572.66" y="1667.66" width="420.05" height="1096.57" style="fill:none;stroke:#5FAAFF;stroke-width:4.86"/>
	<line x1="557.72" y1="2766.66" x2="557.72" y2="113.40" style="stroke:#000000;stroke-width:6.48"/>
	<line x1="557.72" y1="2766.66" x2="512.83" y2="2766.66" style="stroke:#000000;stroke-width:6.48"/>
	<text x="490.22" y="2806.09" style="font-family:'Helvetica';font-size:112.56px;fill:#000000" text-anchor="end">0</text>
	<line x1="557.72" y1="1906.03" x2="512.83" y2="1906.03" style="stroke:#000000;stroke-width:6.48"/>
	<text x="490.22" y="1945.47" style="font-family:'Helvetica';font-size:112.56px;fill:#000000" text-anchor="end">.01</text>
	<line x1="557.72" y1="1045.41" x2="512.83" y2="1045.41" style="stroke:#000000;stroke-width:6.48"/>
	<text x="490.22" y="1084.84" style="font-family:'Helvetica';font-size:112.56px;fill:#000000" text-anchor="end">.02</text>
	<line x1="557.72" y1="184.61" x2="512.83" y2="184.61" style="stroke:#000000;stroke-width:6.48"/>
	<text x="490.22" y="224.05" style="font-family:'Helvetica';font-size:112.56px;fill:#000000" text-anchor="end">.03</text>
	<text x="214.55" y="1439.94" style="font-family:'Helvetica';font-size:112.56px;fill:#000000" transform="rotate(-90 214.55,1439.94)" text-anchor="middle">Density</text>
	<line x1="557.72" y1="2766.66" x2="3387.15" y2="2766.66" style="stroke:#000000;stroke-width:6.48"/>
	<line x1="706.39" y1="2766.66" x2="706.39" y2="2811.54" style="stroke:#000000;stroke-width:6.48"/>
	<text x="706.39" y="2912.86" style="font-family:'Helvetica';font-size:112.56px;fill:#000000" text-anchor="middle">20</text>
	<line x1="1358.78" y1="2766.66" x2="1358.78" y2="2811.54" style="stroke:#000000;stroke-width:6.48"/>
	<text x="1358.78" y="2912.86" style="font-family:'Helvetica';font-size:112.56px;fill:#000000" text-anchor="middle">40</text>
	<line x1="2011.16" y1="2766.66" x2="2011.16" y2="2811.54" style="stroke:#000000;stroke-width:6.48"/>
	<text x="2011.16" y="2912.86" style="font-family:'Helvetica';font-size:112.56px;fill:#000000" text-anchor="middle">60</text>
	<line x1="2663.55" y1="2766.66" x2="2663.55" y2="2811.54" style="stroke:#000000;stroke-width:6.48"/>
	<text x="2663.55" y="2912.86" style="font-family:'Helvetica';font-size:112.56px;fill:#000000" text-anchor="middle">80</text>
	<line x1="3315.94" y1="2766.66" x2="3315.94" y2="2811.54" style="stroke:#000000;stroke-width:6.48"/>
	<text x="3315.94" y="2912.86" style="font-family:'Helvetica';font-size:112.56px;fill:#000000" text-anchor="middle">100</text>
	<text x="1972.52" y="3070.31" style="font-family:'Helvetica';font-size:112.56px;fill:#000000" text-anchor="middle">age</text>
	<rect x="3425.96" y="1177.71" width="1821.83" height="524.64" style="fill:#FFFFFF"/>
	<rect x="3429.20" y="1180.95" width="1815.35" height="518.16" style="fill:none;stroke:#FFFFFF;stroke-width:6.48"/>
	<rect x="3474.56" y="1226.31" width="259.20" height="112.39" style="fill:#FF8C19;fill-opacity:0.40"/>
	<rect x="3476.99" y="1228.74" width="254.34" height="107.53" style="fill:none;stroke:#5FAAFF;stroke-width:4.86"/>
	<line x1="3474.56" y1="1439.94" x2="3733.76" y2="1439.94" style="stroke:#000000;stroke-width:9.72"/>
	<rect x="3474.56" y="1541.19" width="259.20" height="112.56" style="fill:#198DFF;fill-opacity:0.50"/>
	<rect x="3476.99" y="1543.62" width="254.34" height="107.70" style="fill:none;stroke:#5FAAFF;stroke-width:4.86"/>
	<text x="3801.26" y="1321.94" style="font-family:'Helvetica';font-size:112.56px;fill:#000000">Sampled from Normal</text>
	<text x="3801.26" y="1479.38" style="font-family:'Helvetica';font-size:112.56px;fill:#000000">Theoretical Normal</text>
	<text x="3801.26" y="1636.99" style="font-family:'Helvetica';font-size:112.56px;fill:#000000">Sampled from t-distribution</text>
</svg>
